# xmcd CD database file
#
# Track frame offsets:
#	150
#	16025
#	34651
#	52831
#	69144
#	85520
#	103546
#	117769
#	133756
#	147721
#	161676
#
# Disc length: 2270 seconds
#
# Revision: 0
# Processed by: cddbd v1.5.2PL0 Copyright (c) Steve Scherf et al.
# Submitted via: CDex 1.70beta2
#
DISCID=8308dc0b
DTITLE=Zootster - The Groove Sessions
DYEAR=2003
DGENRE=Jazz
TTITLE0=Get with the feeling
TTITLE1=Tell me what you're thinking
TTITLE2=Believe me
TTITLE3=Pure anticipation
TTITLE4=Once again
TTITLE5=A little of something
TTITLE6=Be my inspiration
TTITLE7=Lately in my dreams
TTITLE8=Round trip
TTITLE9=Love somehow got a old of me
TTITLE10=(hidden track)
EXTD=YEAR: 2003
EXTT0=
EXTT1=
EXTT2=
EXTT3=
EXTT4=
EXTT5=
EXTT6=
EXTT7=
EXTT8=
EXTT9=
EXTT10=
PLAYORDER=
